<?xml version="1.0" standalone="no"?>
<!DOCTYPE svg PUBLIC "-//W3C//DTD SVG 20010904//EN"
 "http://www.w3.org/TR/2001/REC-SVG-20010904/DTD/svg10.dtd">
<svg version="1.0" xmlns="http://www.w3.org/2000/svg"
 width="225.000000pt" height="225.000000pt" viewBox="0 0 225.000000 225.000000"
 preserveAspectRatio="xMidYMid meet">
<metadata>
Created by potrace 1.10, written by Peter Selinger 2001-2011
</metadata>
<g transform="translate(0.000000,225.000000) scale(0.100000,-0.100000)"
fill="#000000" stroke="none">
<path d="M1005 2123 c-125 -45 -206 -119 -262 -239 -31 -68 -36 -74 -56 -67
-92 34 -224 -42 -258 -147 -16 -49 -24 -57 -67 -64 -113 -18 -238 -120 -293
-239 -32 -68 -34 -78 -34 -177 0 -99 2 -109 34 -173 46 -91 134 -174 227 -212
59 -25 83 -29 166 -29 l98 -1 0 -117 c0 -64 5 -129 10 -144 19 -48 35 -53 171
-54 173 0 163 -15 167 246 l3 204 72 0 c78 0 112 14 126 54 16 41 -11 74 -175
220 -186 165 -196 169 -261 114 -178 -154 -304 -273 -309 -294 -4 -14 -2 -36
5 -50 14 -31 -4 -32 -57 -5 -90 47 -141 136 -142 246 0 162 104 266 281 281
103 9 123 28 114 106 -5 49 -3 60 15 78 31 31 79 26 131 -15 50 -39 68 -43 98
-17 16 13 25 38 36 105 20 129 60 189 159 241 70 37 182 37 252 0 66 -34 106
-75 138 -138 34 -67 59 -79 127 -65 137 30 296 -62 328 -188 23 -88 36 -108
94 -141 100 -56 146 -135 147 -248 0 -56 -5 -81 -26 -122 -51 -103 -135 -151
-280 -159 l-94 -6 0 146 c0 142 -1 146 -26 176 l-26 31 -123 0 c-179 0 -169
14 -175 -242 l-5 -203 -78 -5 c-71 -5 -81 -8 -103 -33 -25 -29 -25 -55 0 -86
29 -37 311 -283 333 -292 14 -5 35 -7 46 -3 19 6 262 216 325 280 23 24 32 43
32 66 0 31 4 35 75 67 153 68 245 188 269 351 8 57 -22 181 -60 242 -33 53
-98 123 -141 149 -22 14 -36 34 -48 70 -25 76 -90 164 -152 209 -77 55 -152
81 -250 87 -46 3 -83 9 -83 14 0 4 -25 35 -56 68 -40 44 -78 72 -131 98 -68
33 -85 38 -167 40 -68 3 -103 -1 -141 -14z m296 -50 c68 -34 145 -103 174
-156 l17 -32 86 -1 c101 0 163 -21 241 -78 61 -45 125 -137 140 -203 10 -40
18 -52 47 -68 53 -28 127 -108 156 -167 98 -199 18 -423 -186 -524 -63 -31
-85 -36 -167 -41 -88 -5 -95 -4 -114 16 -34 39 -11 55 88 63 162 12 248 62
309 178 19 37 23 60 23 135 0 75 -4 98 -24 137 -29 56 -81 109 -138 138 -53
27 -59 35 -67 88 -9 62 -37 111 -89 159 -83 76 -174 104 -276 84 -34 -7 -66
-9 -71 -6 -6 3 -21 30 -35 60 -30 63 -88 118 -159 151 -78 37 -183 34 -264 -6
-106 -53 -158 -133 -176 -270 -10 -77 -14 -85 -34 -88 -15 -2 -36 9 -62 32
-33 30 -48 36 -84 36 -79 0 -121 -59 -96 -135 17 -50 4 -61 -83 -68 -99 -9
-158 -31 -215 -82 -67 -60 -96 -122 -100 -216 -4 -67 -1 -85 24 -138 33 -75
103 -142 172 -166 26 -9 84 -19 130 -22 68 -5 85 -10 93 -25 39 -73 -147 -80
-287 -11 -68 33 -144 109 -178 178 -115 236 40 520 307 560 44 7 47 9 47 36 0
105 124 199 223 169 22 -6 45 -14 52 -16 8 -3 15 7 19 28 18 93 99 205 183
255 72 42 120 53 219 50 79 -2 100 -7 155 -34z m-376 -919 c172 -153 190 -180
144 -204 -11 -6 -46 -11 -77 -10 -31 1 -69 1 -84 1 l-28 -1 -2 -222 -3 -223
-129 -3 c-86 -2 -133 1 -142 9 -11 9 -14 55 -14 228 l0 216 -83 -3 c-70 -3
-87 0 -107 16 -14 11 -21 25 -18 34 4 8 66 68 140 134 198 177 209 186 224
180 8 -3 88 -72 179 -152z m722 65 c10 -9 13 -59 13 -225 l0 -214 89 0 c91 0
121 -11 121 -45 0 -19 -337 -315 -359 -315 -24 0 -345 286 -349 312 -7 39 15
48 114 48 l94 0 2 223 3 222 35 5 c58 8 222 0 237 -11z"/>
<path d="M737 1233 c-18 -5 -42 -21 -72 -50 -8 -7 -18 -13 -23 -13 -5 0 -21
-17 -35 -37 -15 -21 -27 -34 -27 -30 0 9 -38 -28 -61 -57 -24 -33 6 -11 118
87 l103 89 84 -77 c53 -47 90 -74 97 -69 7 4 9 3 6 -3 -4 -6 5 -21 18 -33 14
-13 25 -19 25 -14 0 14 -57 74 -70 74 -6 0 -8 6 -4 13 4 6 4 9 0 6 -4 -4 -30
16 -58 42 -29 27 -60 52 -70 55 -10 3 -16 10 -13 15 4 5 5 8 3 8 -2 -1 -11 -3
-21 -6z"/>
<path d="M510 1008 c0 -4 24 -8 54 -8 35 0 58 -5 66 -15 9 -11 14 -75 16 -216
2 -120 8 -206 14 -214 13 -15 136 -20 145 -5 4 6 10 8 15 5 4 -3 9 88 9 202 2
193 3 208 22 221 10 7 17 17 14 22 -3 4 10 5 28 1 38 -8 70 -3 62 10 -9 13
-119 11 -133 -3 -9 -9 -12 -74 -12 -230 l0 -218 -72 0 -73 0 3 214 c3 254 6
248 -94 245 -35 -1 -64 -6 -64 -11z"/>
<path d="M1448 1173 c-10 -2 -19 -5 -20 -6 -7 -7 -11 -374 -4 -369 6 3 6 -3 2
-14 -4 -10 -9 -24 -10 -31 -3 -20 -11 -23 -65 -28 -90 -8 -91 -16 -13 -93 136
-135 175 -160 202 -127 7 8 15 13 19 11 4 -3 42 31 86 75 43 44 84 78 90 75 6
-2 11 4 11 14 0 26 -14 16 -133 -89 l-102 -91 -108 96 c-59 53 -109 100 -111
105 -2 4 22 6 54 4 98 -7 94 -17 94 235 l0 220 73 0 72 0 -3 -202 c-2 -112 0
-213 2 -224 7 -27 40 -36 103 -27 l48 8 -40 5 c-27 4 -39 10 -37 19 2 11 0 12
-10 3 -9 -7 -19 -7 -28 -2 -12 7 -15 48 -18 212 -2 124 -7 207 -14 215 -10 13
-101 16 -140 6z"/>
</g>
</svg>
